<svg xmlns="http://www.w3.org/2000/svg" width="423.91" height="304.719" viewBox="0 0 423.91 304.719">
  <defs>
    <style>
      .cls-1 {
        fill: #fff;
        fill-rule: evenodd;
      }
    </style>
  </defs>
  <path id="nonsense-white" class="cls-1" d="M795.4,307.665h21.365V175.409H798.239v79.165l-21.365-79.165H750.781V307.665H769.5V211.874Zm55.389-101.837c0-9.447,4.159-13.037,10.777-13.037s10.777,3.59,10.777,13.037v71.418c0,9.447-4.16,13.037-10.777,13.037s-10.777-3.59-10.777-13.037V205.828Zm-20.8,70.1c0,21.161,11.155,33.252,31.575,33.252s31.575-12.091,31.575-33.252V207.15c0-21.16-11.155-33.252-31.575-33.252s-31.575,12.092-31.575,33.252v68.774Zm121,31.741h21.365V175.409H953.829v79.165l-21.365-79.165H906.372V307.665H925.09V211.874ZM748.324,364.584c0,37.788,40.65,42.889,40.65,70.1,0,9.447-4.159,12.848-10.777,12.848s-10.777-3.4-10.777-12.848v-9.447H747.756v8.124c0,21.161,10.588,33.253,31.008,33.253s31.008-12.092,31.008-33.253c0-37.787-40.65-42.888-40.65-70.1,0-9.447,3.781-13.037,10.4-13.037s10.4,3.59,10.4,13.037v5.479h19.663v-4.157c0-21.161-10.4-33.253-30.63-33.253S748.324,343.423,748.324,364.584Zm94.15-12.847H878.4V332.843H821.676V465.1H878.4V446.205H842.474V407.473h28.55V388.579h-28.55V351.737ZM935.681,465.1h21.365V332.843H938.517v79.165l-21.366-79.165H891.059V465.1h18.719V369.308Zm33.645-100.515c0,37.788,40.654,42.889,40.654,70.1,0,9.447-4.16,12.848-10.78,12.848s-10.778-3.4-10.778-12.848v-9.447H968.759v8.124c0,21.161,10.588,33.253,31.008,33.253s31-12.092,31-33.253c0-37.787-40.646-42.888-40.646-70.1,0-9.447,3.782-13.037,10.4-13.037s10.4,3.59,10.4,13.037v5.479h19.67v-4.157c0-21.161-10.4-33.253-30.634-33.253S969.326,343.423,969.326,364.584Zm94.154-12.847h35.92V332.843h-56.72V465.1h56.72V446.205h-35.92V407.473h28.55V388.579h-28.55V351.737ZM675.5,166.562h20.219V471.281H675.5V166.562Z" transform="translate(-675.5 -166.562)"/>
</svg>
