<svg xmlns="http://www.w3.org/2000/svg" width="423.906" height="304.719" viewBox="0 0 423.906 304.719">
  <defs>
    <style>
      .cls-black {
        fill-rule: evenodd;
      }
    </style>
  </defs>
  <path id="nonsense-black" class="cls-black" d="M271.4,307.665h21.365V175.409H274.239v79.165l-21.365-79.165H226.781V307.665H245.5V211.874Zm55.389-101.837c0-9.447,4.159-13.037,10.777-13.037s10.777,3.59,10.777,13.037v71.418c0,9.447-4.16,13.037-10.777,13.037s-10.777-3.59-10.777-13.037V205.828Zm-20.8,70.1c0,21.161,11.155,33.252,31.575,33.252s31.575-12.091,31.575-33.252V207.15c0-21.16-11.155-33.252-31.575-33.252s-31.575,12.092-31.575,33.252v68.774Zm121,31.741h21.365V175.409H429.829v79.165l-21.365-79.165H382.372V307.665H401.09V211.874ZM224.324,364.584c0,37.788,40.65,42.889,40.65,70.1,0,9.447-4.159,12.848-10.777,12.848s-10.777-3.4-10.777-12.848v-9.447H223.756v8.124c0,21.161,10.588,33.253,31.008,33.253s31.008-12.092,31.008-33.253c0-37.787-40.65-42.888-40.65-70.1,0-9.447,3.781-13.037,10.4-13.037s10.4,3.59,10.4,13.037v5.479h19.663v-4.157c0-21.161-10.4-33.253-30.63-33.253S224.324,343.423,224.324,364.584Zm94.15-12.847H354.4V332.843H297.676V465.1H354.4V446.205H318.474V407.473h28.55V388.579h-28.55V351.737ZM411.681,465.1h21.365V332.843H414.517v79.165l-21.366-79.165H367.059V465.1h18.719V369.308Zm33.645-100.515c0,37.788,40.651,42.889,40.651,70.1,0,9.447-4.16,12.848-10.777,12.848s-10.778-3.4-10.778-12.848v-9.447H444.759v8.124c0,21.161,10.588,33.253,31.008,33.253s31.008-12.092,31.008-33.253c0-37.787-40.651-42.888-40.651-70.1,0-9.447,3.782-13.037,10.4-13.037s10.4,3.59,10.4,13.037v5.479h19.664v-4.157c0-21.161-10.4-33.253-30.63-33.253S445.326,343.423,445.326,364.584Zm94.151-12.847H575.4V332.843H518.679V465.1H575.4V446.205H539.477V407.473h28.55V388.579h-28.55V351.737ZM151.5,166.562h20.219V471.281H151.5V166.562Z" transform="translate(-151.5 -166.562)"/>
</svg>
